<svg xmlns="http://www.w3.org/2000/svg" xmlns:xlink="http://www.w3.org/1999/xlink" width="1200" zoomAndPan="magnify" viewBox="0 0 900 269.999989" height="360" preserveAspectRatio="xMidYMid meet" version="1.0"><defs><g/><clipPath id="b02c5a7dc9"><path d="M 0 0 L 900 0 L 900 270 L 0 270 Z M 0 0 " clip-rule="nonzero"/></clipPath><clipPath id="cc3d0a9f0b"><rect x="0" width="900" y="0" height="270"/></clipPath></defs><rect x="-90" width="1080" fill="#ffffff" y="-26.999999" height="323.999987" fill-opacity="1"/><rect x="-90" width="1080" fill="#ffffff" y="-26.999999" height="323.999987" fill-opacity="1"/><g transform="matrix(1, 0, 0, 1, 0, 0)"><g clip-path="url(#cc3d0a9f0b)"><g clip-path="url(#b02c5a7dc9)"><path fill="#ffffff" d="M 28.960938 -26.414062 L 846.320312 -26.414062 C 867.726562 -26.414062 888.253906 -17.914062 903.390625 -2.777344 C 918.527344 12.359375 927.027344 32.886719 927.027344 54.292969 L 927.027344 215.707031 C 927.027344 237.113281 918.527344 257.640625 903.390625 272.777344 C 888.253906 287.914062 867.726562 296.414062 846.320312 296.414062 L 28.960938 296.414062 C -15.613281 296.414062 -51.746094 260.28125 -51.746094 215.707031 L -51.746094 54.292969 C -51.746094 9.71875 -15.613281 -26.414062 28.960938 -26.414062 Z M 28.960938 -26.414062 " fill-opacity="1" fill-rule="nonzero"/></g><g fill="#000000" fill-opacity="1"><g transform="translate(27.000016, 204.879356)"><g><path d="M 99 -34.40625 L 64.40625 -103.328125 L 63.15625 -80.171875 C 62.769531 -73.441406 62.429688 -66.757812 62.140625 -60.125 C 61.847656 -53.488281 61.316406 -47.175781 60.546875 -41.1875 C 59.785156 -35.195312 58.585938 -29.640625 56.953125 -24.515625 C 55.316406 -19.390625 52.941406 -14.953125 49.828125 -11.203125 C 46.722656 -7.453125 42.6875 -4.519531 37.71875 -2.40625 C 32.757812 -0.289062 26.5625 0.765625 19.125 0.765625 C 15.851562 0.765625 12.710938 0.492188 9.703125 -0.046875 C 6.691406 -0.585938 4.03125 -1.335938 1.71875 -2.296875 C -0.582031 -3.265625 -2.421875 -4.40625 -3.796875 -5.71875 C -5.171875 -7.03125 -5.859375 -8.457031 -5.859375 -10 C -5.859375 -11.15625 -5.695312 -12.320312 -5.375 -13.5 C -5.0625 -14.6875 -4.582031 -15.773438 -3.9375 -16.765625 C -3.300781 -17.765625 -2.515625 -18.566406 -1.578125 -19.171875 C -0.648438 -19.785156 0.382812 -20.09375 1.53125 -20.09375 C 2.238281 -20.09375 2.863281 -19.738281 3.40625 -19.03125 C 3.957031 -18.320312 4.519531 -17.4375 5.09375 -16.375 C 5.664062 -15.320312 6.320312 -14.1875 7.0625 -12.96875 C 7.800781 -11.757812 8.765625 -10.625 9.953125 -9.5625 C 11.140625 -8.507812 12.5625 -7.628906 14.21875 -6.921875 C 15.882812 -6.210938 17.96875 -5.859375 20.46875 -5.859375 C 25.40625 -5.859375 29.554688 -6.707031 32.921875 -8.40625 C 36.285156 -10.101562 39.054688 -12.550781 41.234375 -15.75 C 43.410156 -18.957031 45.078125 -22.835938 46.234375 -27.390625 C 47.390625 -31.941406 48.253906 -37.101562 48.828125 -42.875 C 49.085938 -46.070312 49.34375 -49.160156 49.59375 -52.140625 C 49.851562 -55.117188 50.109375 -58.082031 50.359375 -61.03125 C 50.617188 -63.976562 50.859375 -66.972656 51.078125 -70.015625 C 51.304688 -73.066406 51.550781 -76.289062 51.8125 -79.6875 C 52.132812 -84.625 52.421875 -89.316406 52.671875 -93.765625 C 52.929688 -98.222656 53.140625 -102.375 53.296875 -106.21875 C 53.460938 -110.0625 53.59375 -113.519531 53.6875 -116.59375 C 53.78125 -119.664062 53.859375 -122.328125 53.921875 -124.578125 C 52.835938 -126.816406 51.878906 -128.625 51.046875 -130 C 50.210938 -131.382812 49.34375 -132.441406 48.4375 -133.171875 C 47.539062 -133.910156 46.546875 -134.40625 45.453125 -134.65625 C 44.367188 -134.914062 43.0625 -135.046875 41.53125 -135.046875 C 40.25 -135.046875 38.660156 -134.804688 36.765625 -134.328125 C 34.878906 -133.847656 32.925781 -133.160156 30.90625 -132.265625 C 28.882812 -131.367188 26.863281 -130.265625 24.84375 -128.953125 C 22.820312 -127.640625 21.023438 -126.132812 19.453125 -124.4375 C 17.890625 -122.738281 16.609375 -120.863281 15.609375 -118.8125 C 14.617188 -116.757812 14.125 -114.546875 14.125 -112.171875 C 14.125 -110.117188 14.394531 -108.484375 14.9375 -107.265625 C 15.488281 -106.054688 16.128906 -105.144531 16.859375 -104.53125 C 17.597656 -103.925781 18.335938 -103.539062 19.078125 -103.375 C 19.816406 -103.21875 20.347656 -103.140625 20.671875 -103.140625 C 22.265625 -103.140625 23.570312 -103.410156 24.59375 -103.953125 C 25.625 -104.503906 26.554688 -105.082031 27.390625 -105.6875 C 28.222656 -106.289062 29.007812 -106.863281 29.75 -107.40625 C 30.488281 -107.957031 31.335938 -108.234375 32.296875 -108.234375 C 33.066406 -108.234375 33.882812 -108.054688 34.75 -107.703125 C 35.613281 -107.347656 36.410156 -106.785156 37.140625 -106.015625 C 37.878906 -105.253906 38.503906 -104.25 39.015625 -103 C 39.535156 -101.75 39.796875 -100.226562 39.796875 -98.4375 C 39.796875 -95.863281 39.296875 -93.648438 38.296875 -91.796875 C 37.304688 -89.941406 36.023438 -88.390625 34.453125 -87.140625 C 32.890625 -85.890625 31.097656 -84.957031 29.078125 -84.34375 C 27.054688 -83.738281 25.050781 -83.4375 23.0625 -83.4375 C 19.988281 -83.4375 17.21875 -83.960938 14.75 -85.015625 C 12.28125 -86.078125 10.179688 -87.535156 8.453125 -89.390625 C 6.722656 -91.253906 5.410156 -93.429688 4.515625 -95.921875 C 3.617188 -98.421875 3.171875 -101.082031 3.171875 -103.90625 C 3.171875 -110.570312 4.707031 -116.382812 7.78125 -121.34375 C 10.863281 -126.3125 14.898438 -130.460938 19.890625 -133.796875 C 24.890625 -137.128906 30.546875 -139.613281 36.859375 -141.25 C 43.171875 -142.882812 49.597656 -143.703125 56.140625 -143.703125 C 61.390625 -143.703125 65.773438 -143.171875 69.296875 -142.109375 C 72.828125 -141.054688 75.773438 -139.648438 78.140625 -137.890625 C 80.515625 -136.128906 82.46875 -134.0625 84 -131.6875 C 85.539062 -129.3125 86.953125 -126.8125 88.234375 -124.1875 L 113.609375 -72.671875 C 120.210938 -85.679688 126.222656 -97.328125 131.640625 -107.609375 C 137.054688 -117.890625 142.070312 -126.9375 146.6875 -134.75 C 151.300781 -142.570312 155.609375 -149.238281 159.609375 -154.75 C 163.617188 -160.269531 167.492188 -164.773438 171.234375 -168.265625 C 174.984375 -171.753906 178.703125 -174.300781 182.390625 -175.90625 C 186.078125 -177.507812 189.90625 -178.3125 193.875 -178.3125 C 197.269531 -178.3125 200.023438 -177.585938 202.140625 -176.140625 C 204.253906 -174.703125 205.3125 -172.539062 205.3125 -169.65625 C 205.3125 -167.09375 204.894531 -164.976562 204.0625 -163.3125 C 203.226562 -161.644531 202.078125 -160.8125 200.609375 -160.8125 C 199.390625 -160.8125 198.457031 -161.273438 197.8125 -162.203125 C 197.175781 -163.128906 196.550781 -164.140625 195.9375 -165.234375 C 195.332031 -166.328125 194.582031 -167.335938 193.6875 -168.265625 C 192.789062 -169.191406 191.476562 -169.65625 189.75 -169.65625 C 188.71875 -169.65625 187.460938 -169.363281 185.984375 -168.78125 C 184.515625 -168.207031 182.992188 -167.34375 181.421875 -166.1875 C 179.859375 -165.039062 178.304688 -163.601562 176.765625 -161.875 C 175.234375 -160.144531 173.890625 -158.125 172.734375 -155.8125 C 171.578125 -153.507812 170.675781 -150.882812 170.03125 -147.9375 C 169.394531 -144.988281 169.207031 -141.75 169.46875 -138.21875 C 169.71875 -134.1875 170.066406 -129.460938 170.515625 -124.046875 C 170.960938 -118.628906 171.457031 -112.828125 172 -106.640625 C 172.550781 -100.460938 173.128906 -94.070312 173.734375 -87.46875 C 174.347656 -80.875 174.972656 -74.367188 175.609375 -67.953125 C 176.253906 -61.546875 176.878906 -55.394531 177.484375 -49.5 C 178.097656 -43.601562 178.660156 -38.269531 179.171875 -33.5 C 179.679688 -28.726562 180.160156 -24.691406 180.609375 -21.390625 C 181.054688 -18.085938 181.410156 -15.828125 181.671875 -14.609375 C 182.054688 -12.753906 182.566406 -11.265625 183.203125 -10.140625 C 183.847656 -9.015625 185.003906 -8.453125 186.671875 -8.453125 C 188.398438 -8.453125 190.03125 -8.753906 191.5625 -9.359375 C 193.101562 -9.972656 194.484375 -10.601562 195.703125 -11.25 L 197.25 -7.6875 C 196.09375 -6.851562 194.632812 -5.90625 192.875 -4.84375 C 191.113281 -3.789062 189.09375 -2.785156 186.8125 -1.828125 C 184.539062 -0.867188 182.039062 -0.0703125 179.3125 0.5625 C 176.59375 1.207031 173.660156 1.53125 170.515625 1.53125 C 166.097656 1.53125 162.609375 0.972656 160.046875 -0.140625 C 157.484375 -1.265625 155.507812 -2.644531 154.125 -4.28125 C 152.75 -5.914062 151.820312 -7.644531 151.34375 -9.46875 C 150.863281 -11.289062 150.492188 -12.941406 150.234375 -14.421875 C 149.660156 -17.691406 149.050781 -21.628906 148.40625 -26.234375 C 147.769531 -30.847656 147.144531 -35.796875 146.53125 -41.078125 C 145.925781 -46.367188 145.332031 -51.816406 144.75 -57.421875 C 144.175781 -63.035156 143.648438 -68.515625 143.171875 -73.859375 C 142.691406 -79.210938 142.257812 -84.257812 141.875 -89 C 141.488281 -93.75 141.171875 -97.882812 140.921875 -101.40625 C 138.992188 -98.269531 137.210938 -95.242188 135.578125 -92.328125 C 133.941406 -89.410156 132.351562 -86.429688 130.8125 -83.390625 C 129.28125 -80.347656 127.710938 -77.160156 126.109375 -73.828125 C 124.503906 -70.492188 122.820312 -66.867188 121.0625 -62.953125 C 119.300781 -59.046875 117.378906 -54.753906 115.296875 -50.078125 C 113.210938 -45.398438 110.921875 -40.175781 108.421875 -34.40625 Z M 99 -34.40625 "/></g></g></g><g fill="#000000" fill-opacity="1"><g transform="translate(222.51294, 204.879356)"><g><path d="M 88.625 -84.6875 C 88.625 -72.957031 87.484375 -61.628906 85.203125 -50.703125 C 82.929688 -39.773438 79.789062 -29.519531 75.78125 -19.9375 C 71.78125 -10.363281 67.023438 -1.617188 61.515625 6.296875 C 56.003906 14.210938 50.007812 20.988281 43.53125 26.625 C 37.0625 32.257812 30.222656 36.644531 23.015625 39.78125 C 15.804688 42.925781 8.519531 44.5 1.15625 44.5 C -4.488281 44.5 -8.847656 43.550781 -11.921875 41.65625 C -14.992188 39.769531 -16.53125 37.226562 -16.53125 34.03125 C -16.53125 32.8125 -16.335938 31.625 -15.953125 30.46875 C -15.566406 29.3125 -15.050781 28.285156 -14.40625 27.390625 C -13.769531 26.492188 -13.003906 25.773438 -12.109375 25.234375 C -11.210938 24.691406 -10.253906 24.421875 -9.234375 24.421875 C -8.015625 24.421875 -7.003906 25.023438 -6.203125 26.234375 C -5.398438 27.453125 -4.550781 28.78125 -3.65625 30.21875 C -2.757812 31.664062 -1.671875 33 -0.390625 34.21875 C 0.890625 35.4375 2.65625 36.046875 4.90625 36.046875 C 7.789062 36.046875 10.800781 35.546875 13.9375 34.546875 C 17.070312 33.554688 20.222656 32.128906 23.390625 30.265625 C 26.566406 28.410156 29.742188 26.15625 32.921875 23.5 C 36.097656 20.84375 39.222656 17.878906 42.296875 14.609375 C 40.503906 8.140625 38.4375 1.078125 36.09375 -6.578125 C 33.75 -14.242188 31.28125 -21.953125 28.6875 -29.703125 C 26.09375 -37.453125 23.429688 -44.929688 20.703125 -52.140625 C 17.984375 -59.347656 15.328125 -65.738281 12.734375 -71.3125 C 10.140625 -76.894531 7.640625 -81.367188 5.234375 -84.734375 C 2.835938 -88.097656 0.707031 -89.78125 -1.15625 -89.78125 C -2.375 -89.78125 -3.316406 -89.585938 -3.984375 -89.203125 C -4.660156 -88.816406 -5.445312 -88.269531 -6.34375 -87.5625 L -8.265625 -89.96875 C -6.984375 -91.0625 -5.632812 -92.179688 -4.21875 -93.328125 C -2.8125 -94.484375 -1.148438 -95.539062 0.765625 -96.5 C 2.691406 -97.46875 4.9375 -98.253906 7.5 -98.859375 C 10.0625 -99.472656 13.132812 -99.78125 16.71875 -99.78125 C 20.632812 -99.78125 24.273438 -98.894531 27.640625 -97.125 C 31.003906 -95.363281 34.0625 -92.113281 36.8125 -87.375 C 38.800781 -83.851562 40.867188 -79.625 43.015625 -74.6875 C 45.160156 -69.75 47.320312 -64.234375 49.5 -58.140625 C 51.675781 -52.054688 53.867188 -45.472656 56.078125 -38.390625 C 58.296875 -31.316406 60.523438 -23.90625 62.765625 -16.15625 C 66.742188 -24.476562 69.945312 -33.300781 72.375 -42.625 C 74.8125 -51.945312 76.03125 -61.546875 76.03125 -71.421875 C 76.03125 -74.941406 75.804688 -77.953125 75.359375 -80.453125 C 74.910156 -82.953125 74.394531 -85.082031 73.8125 -86.84375 C 73.238281 -88.601562 72.726562 -90.109375 72.28125 -91.359375 C 71.832031 -92.609375 71.609375 -93.71875 71.609375 -94.6875 C 71.609375 -95.644531 71.992188 -96.457031 72.765625 -97.125 C 73.535156 -97.800781 74.460938 -98.332031 75.546875 -98.71875 C 76.640625 -99.101562 77.742188 -99.375 78.859375 -99.53125 C 79.984375 -99.695312 80.929688 -99.78125 81.703125 -99.78125 C 83.429688 -99.78125 84.757812 -99.425781 85.6875 -98.71875 C 86.625 -98.007812 87.316406 -97 87.765625 -95.6875 C 88.210938 -94.375 88.46875 -92.785156 88.53125 -90.921875 C 88.59375 -89.066406 88.625 -86.988281 88.625 -84.6875 Z M 88.625 -84.6875 "/></g></g></g><g fill="#000000" fill-opacity="1"><g transform="translate(361.313694, 204.879356)"><g><path d="M 104.78125 -33.640625 C 106.1875 -37.421875 107.65625 -41.488281 109.1875 -45.84375 C 110.726562 -50.207031 112.234375 -54.710938 113.703125 -59.359375 C 115.179688 -64.003906 116.609375 -68.710938 117.984375 -73.484375 C 119.367188 -78.253906 120.601562 -82.945312 121.6875 -87.5625 L 112.375 -118.140625 C 111.726562 -120.253906 111.769531 -122.09375 112.5 -123.65625 C 113.238281 -125.226562 114.410156 -126.539062 116.015625 -127.59375 C 117.617188 -128.65625 119.523438 -129.441406 121.734375 -129.953125 C 123.953125 -130.472656 126.273438 -130.734375 128.703125 -130.734375 C 130.816406 -130.734375 132.707031 -130.617188 134.375 -130.390625 C 136.039062 -130.160156 137.5 -129.757812 138.75 -129.1875 C 140 -128.613281 141.039062 -127.796875 141.875 -126.734375 C 142.707031 -125.679688 143.378906 -124.320312 143.890625 -122.65625 L 171.484375 -33.828125 C 172.953125 -37.804688 174.488281 -42.101562 176.09375 -46.71875 C 177.695312 -51.332031 179.265625 -56.070312 180.796875 -60.9375 C 182.335938 -65.8125 183.8125 -70.75 185.21875 -75.75 C 186.632812 -80.75 187.867188 -85.648438 188.921875 -90.453125 C 189.984375 -95.253906 190.816406 -99.847656 191.421875 -104.234375 C 192.035156 -108.628906 192.34375 -112.65625 192.34375 -116.3125 C 192.34375 -120.539062 192.050781 -124.0625 191.46875 -126.875 C 190.894531 -129.695312 190.238281 -132.050781 189.5 -133.9375 C 188.769531 -135.832031 188.113281 -137.390625 187.53125 -138.609375 C 186.957031 -139.828125 186.671875 -140.945312 186.671875 -141.96875 C 186.671875 -143.3125 187.019531 -144.445312 187.71875 -145.375 C 188.425781 -146.3125 189.320312 -147.097656 190.40625 -147.734375 C 191.5 -148.378906 192.6875 -148.84375 193.96875 -149.125 C 195.25 -149.414062 196.46875 -149.5625 197.625 -149.5625 C 200.1875 -149.5625 202.363281 -149.175781 204.15625 -148.40625 C 205.957031 -147.644531 207.207031 -146.332031 207.90625 -144.46875 C 208.226562 -143.507812 208.484375 -142.5 208.671875 -141.4375 C 208.867188 -140.382812 209.015625 -139.359375 209.109375 -138.359375 C 209.210938 -137.367188 209.265625 -136.441406 209.265625 -135.578125 C 209.265625 -134.710938 209.265625 -134.023438 209.265625 -133.515625 C 209.265625 -130.828125 208.828125 -127.140625 207.953125 -122.453125 C 207.085938 -117.773438 205.898438 -112.503906 204.390625 -106.640625 C 202.890625 -100.785156 201.175781 -94.492188 199.25 -87.765625 C 197.332031 -81.035156 195.332031 -74.253906 193.25 -67.421875 C 191.164062 -60.597656 189.066406 -53.914062 186.953125 -47.375 C 184.835938 -40.84375 182.832031 -34.804688 180.9375 -29.265625 C 179.050781 -23.722656 177.390625 -18.851562 175.953125 -14.65625 C 174.515625 -10.457031 173.410156 -7.332031 172.640625 -5.28125 C 172.128906 -3.75 171.4375 -2.53125 170.5625 -1.625 C 169.695312 -0.726562 168.703125 -0.0390625 167.578125 0.4375 C 166.460938 0.914062 165.25 1.21875 163.9375 1.34375 C 162.625 1.46875 161.265625 1.53125 159.859375 1.53125 C 157.285156 1.53125 155.179688 1.273438 153.546875 0.765625 C 151.921875 0.253906 150.625 -0.382812 149.65625 -1.15625 C 148.695312 -1.925781 147.992188 -2.757812 147.546875 -3.65625 C 147.097656 -4.550781 146.742188 -5.351562 146.484375 -6.0625 L 127.359375 -68.921875 C 125.242188 -61.929688 123.097656 -55.054688 120.921875 -48.296875 C 118.742188 -41.535156 116.675781 -35.300781 114.71875 -29.59375 C 112.769531 -23.894531 111.023438 -18.914062 109.484375 -14.65625 C 107.941406 -10.394531 106.753906 -7.269531 105.921875 -5.28125 C 105.285156 -3.75 104.5 -2.53125 103.5625 -1.625 C 102.632812 -0.726562 101.609375 -0.0390625 100.484375 0.4375 C 99.367188 0.914062 98.171875 1.21875 96.890625 1.34375 C 95.609375 1.46875 94.296875 1.53125 92.953125 1.53125 C 90.390625 1.53125 88.289062 1.273438 86.65625 0.765625 C 85.019531 0.253906 83.71875 -0.382812 82.75 -1.15625 C 81.789062 -1.925781 81.070312 -2.757812 80.59375 -3.65625 C 80.113281 -4.550781 79.75 -5.351562 79.5 -6.0625 L 45.28125 -120.4375 C 44.632812 -122.613281 43.941406 -124.457031 43.203125 -125.96875 C 42.472656 -127.476562 41.578125 -128.710938 40.515625 -129.671875 C 39.460938 -130.628906 38.179688 -131.332031 36.671875 -131.78125 C 35.160156 -132.226562 33.316406 -132.453125 31.140625 -132.453125 C 29.347656 -132.453125 27.265625 -132.019531 24.890625 -131.15625 C 22.523438 -130.289062 20.269531 -129.007812 18.125 -127.3125 C 15.976562 -125.613281 14.164062 -123.5 12.6875 -120.96875 C 11.21875 -118.4375 10.484375 -115.503906 10.484375 -112.171875 C 10.484375 -110.117188 10.753906 -108.484375 11.296875 -107.265625 C 11.835938 -106.054688 12.457031 -105.144531 13.15625 -104.53125 C 13.863281 -103.925781 14.585938 -103.539062 15.328125 -103.375 C 16.066406 -103.21875 16.597656 -103.140625 16.921875 -103.140625 C 18.523438 -103.140625 19.835938 -103.410156 20.859375 -103.953125 C 21.878906 -104.503906 22.804688 -105.082031 23.640625 -105.6875 C 24.472656 -106.289062 25.257812 -106.863281 26 -107.40625 C 26.738281 -107.957031 27.585938 -108.234375 28.546875 -108.234375 C 29.316406 -108.234375 30.132812 -108.054688 31 -107.703125 C 31.863281 -107.347656 32.664062 -106.785156 33.40625 -106.015625 C 34.144531 -105.253906 34.769531 -104.25 35.28125 -103 C 35.789062 -101.75 36.046875 -100.226562 36.046875 -98.4375 C 36.046875 -95.863281 35.546875 -93.648438 34.546875 -91.796875 C 33.554688 -89.941406 32.273438 -88.390625 30.703125 -87.140625 C 29.140625 -85.890625 27.347656 -84.957031 25.328125 -84.34375 C 23.304688 -83.738281 21.304688 -83.4375 19.328125 -83.4375 C 16.242188 -83.4375 13.5 -83.976562 11.09375 -85.0625 C 8.695312 -86.15625 6.679688 -87.628906 5.046875 -89.484375 C 3.410156 -91.347656 2.160156 -93.507812 1.296875 -95.96875 C 0.429688 -98.4375 0 -101.082031 0 -103.90625 C 0 -110.570312 1.28125 -116.382812 3.84375 -121.34375 C 6.40625 -126.3125 9.800781 -130.460938 14.03125 -133.796875 C 18.257812 -137.128906 23.066406 -139.613281 28.453125 -141.25 C 33.835938 -142.882812 39.378906 -143.703125 45.078125 -143.703125 C 51.484375 -143.703125 56.738281 -142.722656 60.84375 -140.765625 C 64.945312 -138.816406 68.265625 -136.300781 70.796875 -133.21875 C 73.328125 -130.144531 75.328125 -126.703125 76.796875 -122.890625 C 78.273438 -119.078125 79.59375 -115.3125 80.75 -111.59375 Z M 104.78125 -33.640625 "/></g></g></g><g fill="#000000" fill-opacity="1"><g transform="translate(566.727265, 204.879356)"><g><path d="M 5.859375 -49.21875 C 5.859375 -57.613281 7.078125 -64.96875 9.515625 -71.28125 C 11.953125 -77.59375 15.203125 -82.863281 19.265625 -87.09375 C 23.335938 -91.320312 28.066406 -94.492188 33.453125 -96.609375 C 38.835938 -98.722656 44.476562 -99.78125 50.375 -99.78125 C 56.269531 -99.78125 61.90625 -98.800781 67.28125 -96.84375 C 72.664062 -94.882812 77.390625 -91.882812 81.453125 -87.84375 C 85.523438 -83.8125 88.78125 -78.703125 91.21875 -72.515625 C 93.65625 -66.335938 94.875 -59.019531 94.875 -50.5625 C 94.875 -42.164062 93.65625 -34.726562 91.21875 -28.25 C 88.78125 -21.78125 85.523438 -16.332031 81.453125 -11.90625 C 77.390625 -7.488281 72.664062 -4.144531 67.28125 -1.875 C 61.90625 0.394531 56.269531 1.53125 50.375 1.53125 C 44.476562 1.53125 38.835938 0.457031 33.453125 -1.6875 C 28.066406 -3.832031 23.335938 -7.019531 19.265625 -11.25 C 15.203125 -15.476562 11.953125 -20.765625 9.515625 -27.109375 C 7.078125 -33.453125 5.859375 -40.820312 5.859375 -49.21875 Z M 64.984375 -50.171875 C 64.984375 -55.296875 64.804688 -60.242188 64.453125 -65.015625 C 64.097656 -69.796875 63.40625 -74.046875 62.375 -77.765625 C 61.351562 -81.484375 59.878906 -84.445312 57.953125 -86.65625 C 56.035156 -88.863281 53.507812 -89.96875 50.375 -89.96875 C 47.226562 -89.96875 44.691406 -88.796875 42.765625 -86.453125 C 40.847656 -84.117188 39.375 -81.046875 38.34375 -77.234375 C 37.320312 -73.421875 36.648438 -69.078125 36.328125 -64.203125 C 36.015625 -59.335938 35.859375 -54.34375 35.859375 -49.21875 C 35.859375 -44.09375 36.015625 -39.078125 36.328125 -34.171875 C 36.648438 -29.265625 37.320312 -24.890625 38.34375 -21.046875 C 39.375 -17.203125 40.847656 -14.109375 42.765625 -11.765625 C 44.691406 -9.429688 47.226562 -8.265625 50.375 -8.265625 C 53.507812 -8.265625 56.035156 -9.484375 57.953125 -11.921875 C 59.878906 -14.359375 61.351562 -17.5625 62.375 -21.53125 C 63.40625 -25.5 64.097656 -29.984375 64.453125 -34.984375 C 64.804688 -39.984375 64.984375 -45.046875 64.984375 -50.171875 Z M 64.984375 -50.171875 "/></g></g></g><g fill="#000000" fill-opacity="1"><g transform="translate(667.559661, 204.879356)"><g><path d="M 42.671875 -79.5 C 45.109375 -83.207031 47.707031 -86.570312 50.46875 -89.59375 C 51.613281 -90.875 52.859375 -92.117188 54.203125 -93.328125 C 55.554688 -94.546875 56.953125 -95.632812 58.390625 -96.59375 C 59.835938 -97.5625 61.328125 -98.332031 62.859375 -98.90625 C 64.398438 -99.488281 65.941406 -99.78125 67.484375 -99.78125 C 70.742188 -99.78125 73.300781 -98.800781 75.15625 -96.84375 C 77.019531 -94.882812 77.953125 -92.144531 77.953125 -88.625 C 77.953125 -86.445312 77.773438 -84.347656 77.421875 -82.328125 C 77.066406 -80.304688 76.378906 -77.851562 75.359375 -74.96875 L 72.671875 -74.96875 C 72.285156 -76.957031 71.382812 -78.609375 69.96875 -79.921875 C 68.5625 -81.234375 66.515625 -81.890625 63.828125 -81.890625 C 61.835938 -81.890625 59.878906 -81.519531 57.953125 -80.78125 C 56.035156 -80.050781 54.160156 -79.140625 52.328125 -78.046875 C 50.503906 -76.960938 48.773438 -75.78125 47.140625 -74.5 C 45.515625 -73.21875 44.023438 -72 42.671875 -70.84375 L 42.671875 -8.453125 C 42.671875 -7.617188 42.539062 -6.625 42.28125 -5.46875 C 42.03125 -4.320312 41.410156 -3.234375 40.421875 -2.203125 C 39.429688 -1.179688 37.957031 -0.304688 36 0.421875 C 34.039062 1.160156 31.363281 1.53125 27.96875 1.53125 C 24.570312 1.53125 21.894531 1.128906 19.9375 0.328125 C 17.988281 -0.460938 16.5 -1.40625 15.46875 -2.5 C 14.445312 -3.59375 13.804688 -4.710938 13.546875 -5.859375 C 13.296875 -7.015625 13.171875 -7.945312 13.171875 -8.65625 L 13.171875 -82.859375 C 13.171875 -84.710938 12.738281 -86.328125 11.875 -87.703125 C 11.007812 -89.085938 9.550781 -89.78125 7.5 -89.78125 C 6.40625 -89.78125 5.472656 -89.585938 4.703125 -89.203125 C 3.941406 -88.816406 3.109375 -88.269531 2.203125 -87.5625 L 0.1875 -89.96875 C 1.664062 -91.1875 3.316406 -92.390625 5.140625 -93.578125 C 6.960938 -94.765625 8.929688 -95.804688 11.046875 -96.703125 C 13.160156 -97.597656 15.4375 -98.332031 17.875 -98.90625 C 20.3125 -99.488281 22.875 -99.78125 25.5625 -99.78125 C 28.320312 -99.78125 30.675781 -99.410156 32.625 -98.671875 C 34.582031 -97.929688 36.1875 -96.96875 37.4375 -95.78125 C 38.6875 -94.601562 39.660156 -93.273438 40.359375 -91.796875 C 41.066406 -90.328125 41.597656 -88.835938 41.953125 -87.328125 C 42.304688 -85.816406 42.515625 -84.375 42.578125 -83 C 42.640625 -81.625 42.671875 -80.457031 42.671875 -79.5 Z M 42.671875 -79.5 "/></g></g></g><g fill="#000000" fill-opacity="1"><g transform="translate(743.784661, 204.879356)"><g><path d="M 41.71875 -73.625 C 43.957031 -76.632812 46.359375 -79.691406 48.921875 -82.796875 C 51.484375 -85.910156 54.238281 -88.71875 57.1875 -91.21875 C 60.132812 -93.71875 63.335938 -95.769531 66.796875 -97.375 C 70.265625 -98.976562 74.046875 -99.78125 78.140625 -99.78125 C 81.796875 -99.78125 84.84375 -99.054688 87.28125 -97.609375 C 89.71875 -96.171875 91.6875 -94.441406 93.1875 -92.421875 C 94.695312 -90.398438 95.753906 -88.300781 96.359375 -86.125 C 96.972656 -83.945312 97.28125 -82.085938 97.28125 -80.546875 C 97.28125 -77.734375 96.910156 -74.800781 96.171875 -71.75 C 95.429688 -68.707031 94.179688 -65.695312 92.421875 -62.71875 C 90.660156 -59.738281 88.304688 -56.851562 85.359375 -54.0625 C 82.410156 -51.28125 78.691406 -48.734375 74.203125 -46.421875 C 80.234375 -33.671875 86.097656 -22.695312 91.796875 -13.5 C 97.503906 -4.3125 103 3.242188 108.28125 9.171875 C 113.570312 15.109375 118.648438 19.484375 123.515625 22.296875 C 128.390625 25.117188 133.035156 26.53125 137.453125 26.53125 C 138.222656 26.53125 138.992188 26.429688 139.765625 26.234375 C 140.535156 26.046875 141.238281 25.820312 141.875 25.5625 C 142.582031 25.3125 143.320312 24.992188 144.09375 24.609375 L 145.921875 27.96875 C 144.179688 28.925781 142.414062 29.835938 140.625 30.703125 C 138.832031 31.578125 136.78125 32.332031 134.46875 32.96875 C 132.164062 33.613281 129.507812 34.125 126.5 34.5 C 123.488281 34.882812 119.898438 35.078125 115.734375 35.078125 C 111.953125 35.078125 108.21875 34.628906 104.53125 33.734375 C 100.84375 32.835938 97.140625 31.234375 93.421875 28.921875 C 89.710938 26.617188 85.953125 23.546875 82.140625 19.703125 C 78.328125 15.859375 74.414062 10.988281 70.40625 5.09375 C 66.40625 -0.800781 62.289062 -7.816406 58.0625 -15.953125 C 53.832031 -24.085938 49.441406 -33.601562 44.890625 -44.5 C 51.035156 -49.050781 55.867188 -53.265625 59.390625 -57.140625 C 62.921875 -61.015625 65.582031 -64.519531 67.375 -67.65625 C 69.175781 -70.800781 70.300781 -73.59375 70.75 -76.03125 C 71.195312 -78.46875 71.421875 -80.550781 71.421875 -82.28125 C 71.421875 -82.539062 71.390625 -82.972656 71.328125 -83.578125 C 71.265625 -84.179688 71.054688 -84.769531 70.703125 -85.34375 C 70.347656 -85.925781 69.832031 -86.441406 69.15625 -86.890625 C 68.488281 -87.335938 67.546875 -87.5625 66.328125 -87.5625 C 63.953125 -87.5625 61.546875 -86.550781 59.109375 -84.53125 C 56.679688 -82.519531 54.359375 -80.023438 52.140625 -77.046875 C 49.929688 -74.066406 47.929688 -70.859375 46.140625 -67.421875 C 44.347656 -63.992188 42.875 -60.875 41.71875 -58.0625 L 41.71875 -8.453125 C 41.71875 -7.617188 41.570312 -6.625 41.28125 -5.46875 C 41 -4.320312 40.328125 -3.234375 39.265625 -2.203125 C 38.210938 -1.179688 36.675781 -0.304688 34.65625 0.421875 C 32.632812 1.160156 29.925781 1.53125 26.53125 1.53125 C 23.132812 1.53125 20.472656 1.128906 18.546875 0.328125 C 16.628906 -0.460938 15.203125 -1.40625 14.265625 -2.5 C 13.335938 -3.59375 12.757812 -4.710938 12.53125 -5.859375 C 12.3125 -7.015625 12.203125 -7.945312 12.203125 -8.65625 L 12.203125 -132.65625 C 12.203125 -134.507812 11.769531 -136.125 10.90625 -137.5 C 10.039062 -138.875 8.582031 -139.5625 6.53125 -139.5625 C 5.445312 -139.5625 4.503906 -139.382812 3.703125 -139.03125 C 2.898438 -138.6875 2.050781 -138.160156 1.15625 -137.453125 L -0.765625 -139.765625 C 0.703125 -140.984375 2.332031 -142.179688 4.125 -143.359375 C 5.925781 -144.546875 7.898438 -145.585938 10.046875 -146.484375 C 12.191406 -147.390625 14.476562 -148.128906 16.90625 -148.703125 C 19.34375 -149.273438 21.910156 -149.5625 24.609375 -149.5625 C 28.773438 -149.5625 32.007812 -149 34.3125 -147.875 C 36.625 -146.757812 38.320312 -145.382812 39.40625 -143.75 C 40.5 -142.113281 41.15625 -140.382812 41.375 -138.5625 C 41.601562 -136.738281 41.71875 -135.117188 41.71875 -133.703125 Z M 41.71875 -73.625 "/></g></g></g></g></g></svg>